# xmcd
#
# Track frame offsets:
#	150
#	29753
#	50011
#	79539
#	85209
#	102152
#
# Disc length: 1830 seconds
#
# Revision: 0
# Processed by: cddbd v1.5.2PL0 Copyright (c) Steve Scherf et al.
# Submitted via: audiograbber 1.83.01
#
DISCID=44072406
DTITLE=Beth Hart - Rockpalast Crossroads 2011 (2/2)
DYEAR=2011
DGENRE=Blues
TTITLE0=Ugliest House On The Block
TTITLE1=Today Came Home
TTITLE2=A Change Is Gonna Come
TTITLE3=(Encore)
TTITLE4=Trouble
TTITLE5=Sister Heroine
EXTD=
EXTT0=
EXTT1=
EXTT2=
EXTT3=
EXTT4=
EXTT5=
PLAYORDER=
